<svg xmlns="http://www.w3.org/2000/svg" width="344.781" height="63.688" viewBox="0 0 344.781 63.688">
  <metadata><?xpacket begin="﻿" id="W5M0MpCehiHzreSzNTczkc9d"?>
<x:xmpmeta xmlns:x="adobe:ns:meta/" x:xmptk="Adobe XMP Core 5.6-c138 79.159824, 2016/09/14-01:09:01        ">
   <rdf:RDF xmlns:rdf="http://www.w3.org/1999/02/22-rdf-syntax-ns#">
      <rdf:Description rdf:about=""/>
   </rdf:RDF>
</x:xmpmeta>
                                                                                                    
                                                                                                    
                                                                                                    
                                                                                                    
                                                                                                    
                                                                                                    
                                                                                                    
                                                                                                    
                                                                                                    
                                                                                                    
                                                                                                    
                                                                                                    
                                                                                                    
                                                                                                    
                                                                                                    
                                                                                                    
                                                                                                    
                                                                                                    
                                                                                                    
                                                                                                    
                           
<?xpacket end="w"?></metadata>
<defs>
    <style>
      .cls-1 {
        fill: #262623;
        fill-rule: evenodd;
      }
    </style>
  </defs>
  <path id="Original" class="cls-1" d="M389.194,367.717a5.344,5.344,0,0,1,1.158.222,1.5,1.5,0,0,1,.526.315,1.228,1.228,0,0,1,.268.655,13.447,13.447,0,0,1,.129,1.555q0.047,1.086.047,2.817l0.023,5.307v8.58q0,2.058-.128,5.961a18.35,18.35,0,0,1-.339,4.139,6.7,6.7,0,0,1-1.567.841l-0.187.234v0.771l0.187,0.187q2.315-.186,3.9-0.187,0.258,0,3.367.071,2.805,0.115,3.367.116a18.423,18.423,0,0,0,4.617-.49,13.416,13.416,0,0,0,3.635-1.59,11.945,11.945,0,0,0,3.028-2.642,9.143,9.143,0,0,0,1.718-3.109,10.742,10.742,0,0,0,.468-3.086,7.967,7.967,0,0,0-.69-3.414,6.41,6.41,0,0,0-1.882-2.4,7.966,7.966,0,0,0-2.829-1.368,25.176,25.176,0,0,0-4.161-.678q4.208-.959,6.078-3.179a7.332,7.332,0,0,0,1.871-4.816,6.179,6.179,0,0,0-1.123-3.636,5.847,5.847,0,0,0-2.969-2.232,15.948,15.948,0,0,0-5-.632q-0.817,0-2.642.047-5.658.188-6.475,0.187-2.175,0-6.172-.187l-0.188.164v1.169l0.188,0.163Zm6.617,7.925q0-5.236.21-7.341a18.672,18.672,0,0,1,3.834-.351,11.121,11.121,0,0,1,4.22.655,4.615,4.615,0,0,1,2.279,1.882,5.768,5.768,0,0,1,.725,2.981,6.108,6.108,0,0,1-1.894,4.746q-1.893,1.73-6.733,1.73-1.473,0-2.641-.094v-4.208Zm0,14.121v-7.972q1.471-.093,2.524-0.094,6.336,0,8.242,2.023a7.537,7.537,0,0,1,1.905,5.388,9.59,9.59,0,0,1-.9,4.15,6.617,6.617,0,0,1-2.794,2.981,10.661,10.661,0,0,1-5.237,1.075,16.207,16.207,0,0,1-3.694-.42Zm22.419-11.175-0.187.187v1l0.21,0.187,1.964,0.023a2.772,2.772,0,0,1,1.216.176,0.729,0.729,0,0,1,.362.549q0.058,0.375.152,1.987t0.094,2.549v4.605q0,1.311-.106,3.87t-0.187,3.016a1.249,1.249,0,0,1-.3.678,1.07,1.07,0,0,1-.514.292q-0.292.069-2.56,0.21l-0.21.187v0.982l0.21,0.21q2.922-.186,5.611-0.187,3.39,0,6.5.187l0.211-.21v-0.982l-0.211-.187q-2.969-.164-3.331-0.234a1.044,1.044,0,0,1-.912-0.888,27.8,27.8,0,0,1-.2-3.156q-0.093-2.736-.093-3.437v-2.595a14.245,14.245,0,0,1,.362-3.518,4.464,4.464,0,0,1,1.438-2.315,3.756,3.756,0,0,1,2.525-.923,3.138,3.138,0,0,1,3.016,2.15h1.052q0.046-2.361.421-5.47l-0.164-.328a4.584,4.584,0,0,0-1.94-.42,5.239,5.239,0,0,0-1.824.327,4.8,4.8,0,0,0-1.555.923,13.746,13.746,0,0,0-1.531,1.695l-1.753,2.221q0.069-3.459.21-4.816l-0.444-.3a30.464,30.464,0,0,1-7.528,1.754h0Zm23.541,4.559q1.1-2.619,1.263-2.864a3.183,3.183,0,0,1,1.274-.643,7.279,7.279,0,0,1,2.467-.4,5.887,5.887,0,0,1,4.138,1.415q1.542,1.415,1.543,4.874-9.586,1.356-11.737,3.285a6.836,6.836,0,0,0-2.15,5.366,5.718,5.718,0,0,0,.713,2.945,4.846,4.846,0,0,0,2.057,1.894,7.063,7.063,0,0,0,3.215.678,7.187,7.187,0,0,0,2.805-.538l5.1-3.974-0.094,3.764,0.351,0.327q1.963-.139,3.366-0.14,1.473,0,3.18.14l0.187-.187v-0.935l-0.187-.211-1.333-.116a3.968,3.968,0,0,1-.958-0.176,1.013,1.013,0,0,1-.456-0.409,4.235,4.235,0,0,1-.2-1.73v-6.967l0.117-4.7a7.437,7.437,0,0,0-.8-3.518,6.3,6.3,0,0,0-2.571-2.514,8.978,8.978,0,0,0-4.466-1,13.664,13.664,0,0,0-8.089,3.086v2.9l0.187,0.234,0.912,0.234Zm10.685,10.123q-3.041,3.6-6.149,3.6-3.624,0-3.624-3.647a4.651,4.651,0,0,1,1.613-3.9q1.614-1.263,8.16-2.361v6.312Zm9.561-14.682-0.187.187v1l0.21,0.187L464,379.99a2.772,2.772,0,0,1,1.216.176,0.729,0.729,0,0,1,.362.549q0.058,0.375.152,1.987t0.094,2.549v4.605q0,1.311-.106,3.87t-0.187,3.016a1.256,1.256,0,0,1-.3.678,1.07,1.07,0,0,1-.514.292q-0.293.069-2.56,0.21l-0.21.187v0.982l0.21,0.21q2.922-.186,5.611-0.187,2.712,0,5.634.187l0.187-.21v-0.982l-0.21-.187q-2.221-.139-2.525-0.2a0.959,0.959,0,0,1-.514-0.268,1.37,1.37,0,0,1-.316-0.678,30.4,30.4,0,0,1-.2-3.262q-0.093-2.793-.093-3.308v-4.068a17.338,17.338,0,0,1,.1-2.443,2.959,2.959,0,0,1,.62-1.239,7.408,7.408,0,0,1,1.589-1.426,6.613,6.613,0,0,1,1.941-1,7.674,7.674,0,0,1,2.08-.246,5.8,5.8,0,0,1,2.619.55,4.422,4.422,0,0,1,1.753,1.543,4.886,4.886,0,0,1,.783,2.209q0.129,1.215.129,3.974v3.063q0,4.887-.3,7.925l0.281,0.257q2.805-.186,3.413-0.187,1.052,0,4.021.187l0.187-.187v-1l-0.187-.187q-2.454,0-2.9-.421t-0.491-2.641q-0.117-5.424-.117-5.822v-4.114a14.523,14.523,0,0,0-.327-3.344,5.54,5.54,0,0,0-1.181-2.349,6.868,6.868,0,0,0-2.525-1.719,8.586,8.586,0,0,0-3.448-.724,9.1,9.1,0,0,0-2.057.233,7.4,7.4,0,0,0-1.438.445,4.069,4.069,0,0,0-.924.654q-1.683,1.59-3.553,3.133,0.047-2.549.187-4.115l-0.444-.3a30.475,30.475,0,0,1-7.528,1.754h0Zm44.3-10.965a21.04,21.04,0,0,1,2.84.094,0.835,0.835,0,0,1,.48.292,3.653,3.653,0,0,1,.233,1.262q0.094,1.065.141,3.776l0.093,5.214a11.607,11.607,0,0,0-5.658-1.473,8.762,8.762,0,0,0-4.29,1.2q-2.162,1.2-4,2.326a7.158,7.158,0,0,0-2.829,3.565,13.364,13.364,0,0,0-.994,5.085,13.867,13.867,0,0,0,.959,5.062,8.772,8.772,0,0,0,3.214,4.056,9.275,9.275,0,0,0,5.483,1.59,7.011,7.011,0,0,0,3.062-.538q0.585-.421,2.478-2.1,1.287-1.146,2.572-2.081c-0.015.514-.023,0.811-0.023,0.888q0,0.912-.07,3.2l0.257,0.257q2.337-.163,3.6-0.163,1.4,0,3.928.163l0.21-.21V398.2l-0.21-.187a12.328,12.328,0,0,1-2.724-.4,1.506,1.506,0,0,1-.689-0.537,6.126,6.126,0,0,1-.293-2.093q-0.082-1.764-.082-4.126V375.549q0-8.089.258-10.778l-0.445-.281a29.783,29.783,0,0,1-7.528,1.73l-0.187.211v0.982Zm3.787,18.633q0,3.554-.14,4.886a6.127,6.127,0,0,1-.994,2.665,6.482,6.482,0,0,1-2.174,2.116,5.815,5.815,0,0,1-3.027.783,6.493,6.493,0,0,1-5.2-2.478,9.911,9.911,0,0,1-2.069-6.569,13.4,13.4,0,0,1,.748-4.547,5.947,5.947,0,0,1,2.443-3.157,6.757,6.757,0,0,1,3.659-1.063,7.982,7.982,0,0,1,3.542.865,10.433,10.433,0,0,1,3.214,2.5v4Zm26.019-18.539a5.332,5.332,0,0,1,1.157.222,1.489,1.489,0,0,1,.526.315,1.228,1.228,0,0,1,.269.655,13.682,13.682,0,0,1,.129,1.555q0.046,1.086.046,2.817l0.024,5.307v8.58q0,2.058-.129,5.961a18.279,18.279,0,0,1-.339,4.139,6.66,6.66,0,0,1-1.566.841l-0.187.234v0.771l0.187,0.187q2.314-.186,3.9-0.187,0.257,0,3.367.071,2.8,0.115,3.366.116a18.426,18.426,0,0,0,4.618-.49,13.429,13.429,0,0,0,3.635-1.59,11.962,11.962,0,0,0,3.028-2.642,9.143,9.143,0,0,0,1.718-3.109,10.742,10.742,0,0,0,.468-3.086,7.982,7.982,0,0,0-.69-3.414,6.41,6.41,0,0,0-1.882-2.4,7.966,7.966,0,0,0-2.829-1.368,25.176,25.176,0,0,0-4.161-.678q4.208-.959,6.078-3.179a7.331,7.331,0,0,0,1.87-4.816,6.185,6.185,0,0,0-1.122-3.636,5.847,5.847,0,0,0-2.969-2.232,15.948,15.948,0,0,0-5-.632q-0.819,0-2.642.047-5.658.188-6.476,0.187-2.173,0-6.172-.187l-0.187.164v1.169l0.187,0.163Zm6.616,7.925q0-5.236.211-7.341a18.665,18.665,0,0,1,3.834-.351,11.121,11.121,0,0,1,4.22.655,4.615,4.615,0,0,1,2.279,1.882,5.768,5.768,0,0,1,.725,2.981,6.108,6.108,0,0,1-1.894,4.746q-1.893,1.73-6.733,1.73-1.473,0-2.642-.094v-4.208Zm0,14.121v-7.972q1.473-.093,2.525-0.094,6.336,0,8.241,2.023a7.537,7.537,0,0,1,1.906,5.388,9.591,9.591,0,0,1-.9,4.15,6.615,6.615,0,0,1-2.793,2.981,10.664,10.664,0,0,1-5.237,1.075,16.2,16.2,0,0,1-3.694-.42Zm23.787,4.185a11.008,11.008,0,0,0,3.8,4.313,10.084,10.084,0,0,0,5.845,1.765,11.961,11.961,0,0,0,12.087-12.274,10.595,10.595,0,0,0-11.082-11.058,11.93,11.93,0,0,0-6.744,1.882,10.544,10.544,0,0,0-3.987,4.466,13.106,13.106,0,0,0-1.145,5.365A12.6,12.6,0,0,0,566.528,393.948Zm4.9-13.49a5.671,5.671,0,0,1,4.746-2.2,6.227,6.227,0,0,1,5.623,3.179,15.394,15.394,0,0,1,1.952,8.159q0,4.4-1.8,6.581a5.655,5.655,0,0,1-4.559,2.186,6.209,6.209,0,0,1-4.162-1.566,9,9,0,0,1-2.665-4.15,18.87,18.87,0,0,1-.841-5.856A10.156,10.156,0,0,1,571.426,380.458Zm19.941-1.87-0.187.187v1l0.211,0.187,1.964,0.023a2.764,2.764,0,0,1,1.215.176,0.728,0.728,0,0,1,.363.549q0.057,0.375.152,1.987t0.093,2.549v4.559l-0.023,1.847a14.524,14.524,0,0,0,.608,5.038,4.635,4.635,0,0,0,2.069,2.291,8.325,8.325,0,0,0,4.079.83,9.034,9.034,0,0,0,3.086-.491,5.6,5.6,0,0,0,2.081-1.216,35.705,35.705,0,0,1,3.367-3.062q-0.071,1.659-.211,4.044l0.211,0.187q1.869-.164,3.3-0.164,1.122,0,4.419.187l0.187-.21v-0.935l-0.211-.187h-0.654a6.789,6.789,0,0,1-2.081-.175,1.208,1.208,0,0,1-.549-0.608,8.663,8.663,0,0,1-.246-2.42q-0.117-5.378-.117-5.728v-4.114q0-4.724.257-7.786l-0.444-.3a30.464,30.464,0,0,1-7.528,1.754l-0.187.187v1l0.211,0.187,1.963,0.023a2.772,2.772,0,0,1,1.216.176,0.729,0.729,0,0,1,.362.549q0.058,0.375.152,1.987t0.094,2.549v2.525l-0.07,2.618a11.958,11.958,0,0,1-.187,2.361,7.693,7.693,0,0,1-1.087,1.637,6.439,6.439,0,0,1-2.35,1.882,7.158,7.158,0,0,1-3.109.666,5.437,5.437,0,0,1-2.666-.619,3.4,3.4,0,0,1-1.578-1.789,12.937,12.937,0,0,1-.455-4.161v-5.447q0-4.724.257-7.786l-0.445-.3a30.464,30.464,0,0,1-7.528,1.754h0Zm30.556,2.361q1.355-.093,2.408-0.093h0.958v9.7q0,0.42-.023.818-0.095,1.31-.094,3.18,0,5.1,5.261,5.1a5.862,5.862,0,0,0,2.478-.561q2.127-1.94,2.688-2.338l-0.561-.841a5.442,5.442,0,0,1-2.9.818,3.135,3.135,0,0,1-2.045-.573,2.449,2.449,0,0,1-.842-1.59,37.448,37.448,0,0,1-.152-4.313l0.14-9.515q2.058-.024,3.367-0.024,1.449,0,2.642.024l0.187-.211,0.444-1.964-0.164-.163a38.569,38.569,0,0,1-3.951.14q-1.356,0-2.525-.023,0.327-7.084.561-8.557l-0.561-.468a20.166,20.166,0,0,1-3.951,1.8q0.141,1,.141,7.107a33.214,33.214,0,0,1-3.554,1.519l-0.164.234v0.608Zm20.163-13.793a2.526,2.526,0,0,0-.783,1.87,2.487,2.487,0,0,0,.783,1.858,2.577,2.577,0,0,0,1.859.76,2.547,2.547,0,0,0,1.87-.771,2.631,2.631,0,0,0-1.87-4.489A2.557,2.557,0,0,0,642.086,367.156ZM638.4,378.588l-0.187.187v1l0.21,0.187,1.964,0.023a2.772,2.772,0,0,1,1.216.176,0.729,0.729,0,0,1,.362.549q0.058,0.375.152,1.987t0.094,2.549v4.605q0,1.311-.106,3.87t-0.187,3.016a1.249,1.249,0,0,1-.3.678,1.07,1.07,0,0,1-.514.292q-0.293.069-2.56,0.21l-0.21.187v0.982l0.21,0.21q2.922-.186,5.611-0.187,2.712,0,5.634.187l0.187-.21v-0.982l-0.21-.187q-2.221-.139-2.525-0.2a0.959,0.959,0,0,1-.514-0.268,1.37,1.37,0,0,1-.316-0.678,30.7,30.7,0,0,1-.2-3.262q-0.093-2.793-.093-3.308v-5.283q0-4.724.257-7.786l-0.444-.3a30.464,30.464,0,0,1-7.528,1.754h0Zm34.483-.164a13.416,13.416,0,0,0-6.149-1.636A10.005,10.005,0,0,0,661.9,378q-3.577,1.988-4.138,2.385a7.992,7.992,0,0,0-2.712,3.273,13.657,13.657,0,0,0-1.1,5.424,11.6,11.6,0,0,0,2.49,7.423,8.173,8.173,0,0,0,6.768,3.144,12.964,12.964,0,0,0,1.426-.07,4.138,4.138,0,0,0,.736-0.117c0.071-.031.293-0.164,0.667-0.4l5-3.133v6.944q0,1.332-.105,3.974t-0.187,3.133a1.3,1.3,0,0,1-.3.713,1.077,1.077,0,0,1-.515.292q-0.292.071-2.56,0.21l-0.187.187v0.982l0.187,0.211q3.109-.187,5.611-0.187,2.712,0,5.635.187l0.187-.211v-0.982l-0.211-.187q-2.221-.139-2.513-0.2a1.029,1.029,0,0,1-.514-0.269,1.316,1.316,0,0,1-.328-0.678,30.53,30.53,0,0,1-.2-3.261q-0.094-2.795-.094-3.309V388.711q0-2.922.094-5.155a28.578,28.578,0,0,1,.269-3.261,17.549,17.549,0,0,1,.853-2.876l-0.865-.514Zm-1.777,8.744q0,0.841-.07,6.686a7.2,7.2,0,0,1-5.634,3.086,6.689,6.689,0,0,1-3.636-1.052,7.007,7.007,0,0,1-2.642-3.425,13,13,0,0,1-.97-4.968,9.887,9.887,0,0,1,1.941-6.359,6.156,6.156,0,0,1,5.049-2.431,7.641,7.641,0,0,1,3.46.818,9.48,9.48,0,0,1,2.432,1.613q0.071,2.151.07,6.032h0Zm9.327-8.58-0.187.187v1l0.211,0.187,1.963,0.023a2.769,2.769,0,0,1,1.216.176,0.73,0.73,0,0,1,.363.549q0.057,0.375.152,1.987t0.093,2.549v4.559l-0.023,1.847a14.524,14.524,0,0,0,.608,5.038,4.635,4.635,0,0,0,2.069,2.291,8.319,8.319,0,0,0,4.079.83,9.038,9.038,0,0,0,3.086-.491,5.6,5.6,0,0,0,2.081-1.216,35.581,35.581,0,0,1,3.367-3.062q-0.071,1.659-.211,4.044l0.211,0.187q1.869-.164,3.3-0.164,1.122,0,4.419.187l0.187-.21v-0.935l-0.211-.187h-0.654a6.789,6.789,0,0,1-2.081-.175,1.214,1.214,0,0,1-.55-0.608,8.721,8.721,0,0,1-.245-2.42q-0.117-5.378-.117-5.728v-4.114q0-4.724.257-7.786l-0.444-.3a30.464,30.464,0,0,1-7.528,1.754l-0.187.187v1l0.21,0.187,1.964,0.023a2.772,2.772,0,0,1,1.216.176,0.729,0.729,0,0,1,.362.549q0.058,0.375.152,1.987t0.094,2.549v2.525l-0.07,2.618a11.958,11.958,0,0,1-.187,2.361,7.671,7.671,0,0,1-1.088,1.637,6.427,6.427,0,0,1-2.349,1.882,7.158,7.158,0,0,1-3.109.666,5.435,5.435,0,0,1-2.666-.619,3.4,3.4,0,0,1-1.578-1.789,12.93,12.93,0,0,1-.456-4.161v-5.447q0-4.724.258-7.786l-0.445-.3a30.464,30.464,0,0,1-7.528,1.754h0ZM730,395.28a19.591,19.591,0,0,1-3.192,1.567,8.942,8.942,0,0,1-3.144.561,8.119,8.119,0,0,1-5.845-2.291q-2.383-2.292-2.431-7.131h7.5q0.865,0,3.554-.117a26.074,26.074,0,0,0,4.278-.467l0.258-.258a13.822,13.822,0,0,0,.07-1.4,11.179,11.179,0,0,0-.865-4.372,7.26,7.26,0,0,0-3-3.378,9.212,9.212,0,0,0-4.944-1.321,10.356,10.356,0,0,0-3.834.7,14.929,14.929,0,0,0-3.367,1.87,9.9,9.9,0,0,0-2.256,2.128,10.986,10.986,0,0,0-1.274,2.934,15.012,15.012,0,0,0-.608,4.43,12.011,12.011,0,0,0,1.578,6.313,8.931,8.931,0,0,0,4.091,3.717,13.146,13.146,0,0,0,5.319,1.1,14.449,14.449,0,0,0,3.4-.468,14.83,14.83,0,0,0,4.337-2.034l0.748-1.683Zm-13.058-15.056a5.2,5.2,0,0,1,4.337-1.987A4.959,4.959,0,0,1,725.3,380q1.473,1.765,1.473,5.389,0,0.3-.023.865a36.445,36.445,0,0,1-3.951.117q-1.356,0-4.173-.093t-3.238-.164A9.445,9.445,0,0,1,716.942,380.224ZM389,424v-1H511v1H389Zm221,0v-1H732v1H610Zm-88.339.958a4.491,4.491,0,0,0,.955,1.7,4.18,4.18,0,0,0,1.593,1.109,5.484,5.484,0,0,0,2.046.372,5.836,5.836,0,0,0,2.828-.683,4.72,4.72,0,0,0,1.934-1.91,5.652,5.652,0,0,0,.676-2.769,4.46,4.46,0,0,0-1.379-3.456,5.26,5.26,0,0,0-3.7-1.265,5.834,5.834,0,0,0-2.251.412,4.836,4.836,0,0,0-1.7,1.167,4.428,4.428,0,0,0-1,1.641A5.867,5.867,0,0,0,521.661,424.958Zm2.077-5.281a3.379,3.379,0,0,1,2.613-1.037,4.072,4.072,0,0,1,2.012.5,3.3,3.3,0,0,1,1.4,1.617,6.111,6.111,0,0,1,.491,2.49,5.834,5.834,0,0,1-.43,2.289,3.041,3.041,0,0,1-1.255,1.5,3.924,3.924,0,0,1-3.476.15,3.446,3.446,0,0,1-1.235-1.02,4.712,4.712,0,0,1-.8-1.644,6.662,6.662,0,0,1-.269-1.791A4.377,4.377,0,0,1,523.738,419.677Zm9.407-1.037,0.054,0.048a5.822,5.822,0,0,1,.908.075,0.5,0.5,0,0,1,.249.123,0.616,0.616,0,0,1,.1.3c0.021,0.15.033,0.485,0.038,1l0.013,1.33v3.159l-0.006,1.439a6.243,6.243,0,0,1-.052.942,0.527,0.527,0,0,1-.116.276,0.607,0.607,0,0,1-.283.106,7.147,7.147,0,0,1-.846.068l-0.054.041v0.341l0.054,0.055q1.74-.056,1.951-0.055,0.273,0,.758.014l1.2,0.041,0.055-.055V427.55l-0.055-.041a5.416,5.416,0,0,1-.907-0.078,0.51,0.51,0,0,1-.249-0.126,0.647,0.647,0,0,1-.1-0.3,9.308,9.308,0,0,1-.041-1l-0.007-1.33v-3.159a13.75,13.75,0,0,1,.1-2.558,4.507,4.507,0,0,1,1.35-.2,2.6,2.6,0,0,1,1.624.461,1.609,1.609,0,0,1,.6,1.361,1.946,1.946,0,0,1-.668,1.569,2.776,2.776,0,0,1-1.849.566c-0.132,0-.316-0.007-0.552-0.02l-0.069.211q1.228,1.4,2.4,3.036,1.01,1.411,1.48,1.985,0.573-.041,1.058-0.041a6.418,6.418,0,0,1,.777.041l0.062-.061V427.55l-0.055-.054a2.162,2.162,0,0,1-.358-0.021,0.867,0.867,0,0,1-.27-0.113,4.314,4.314,0,0,1-.7-0.8q-0.54-.705-1.01-1.34l-0.969-1.283q-0.5-.654-0.689-0.921a4.414,4.414,0,0,0,1.617-.59,2.664,2.664,0,0,0,.887-0.945,2.331,2.331,0,0,0,.3-1.125,2.059,2.059,0,0,0-.614-1.488,3.286,3.286,0,0,0-2.34-.627q-0.219,0-.7.013-1.31.048-2.08,0.048-0.7,0-1.945-.054l-0.054.047v0.341Zm10.232-.341v0.341l0.055,0.048a5.8,5.8,0,0,1,.907.075,0.494,0.494,0,0,1,.249.123,0.616,0.616,0,0,1,.1.3c0.021,0.15.033,0.485,0.038,1l0.014,1.33v3.159l-0.007,1.439a6.441,6.441,0,0,1-.051.942,0.535,0.535,0,0,1-.116.276,0.612,0.612,0,0,1-.283.106,7.147,7.147,0,0,1-.846.068l-0.055.041v0.341l0.055,0.055q1.738-.056,1.951-0.055,0.273,0,.757.014l1.2,0.041,0.054-.055V427.55l-0.054-.041a5.433,5.433,0,0,1-.908-0.078,0.52,0.52,0,0,1-.249-0.126,0.637,0.637,0,0,1-.1-0.3,9.035,9.035,0,0,1-.041-1l-0.007-1.33v-3.159l0.013-1.569a6.023,6.023,0,0,1,.038-0.767,0.489,0.489,0,0,1,.153-0.352,0.888,0.888,0,0,1,.372-0.1q0.256-.027.727-0.041l0.054-.048V418.3l-0.054-.047q-1.726.054-1.958,0.054-0.26,0-1.1-.027l-0.852-.027Zm15.349,5.82q-0.75.04-1.139,0.04-0.677,0-1.747-.034l-0.416-.013-0.061.061v0.3l0.061,0.062a8.2,8.2,0,0,1,1.163.068,0.456,0.456,0,0,1,.338.188,1.94,1.94,0,0,1,.068.672v0.757a3.984,3.984,0,0,1-.061.88,3.453,3.453,0,0,1-.972.317,6.176,6.176,0,0,1-1.157.113,4.265,4.265,0,0,1-2.285-.607,3.984,3.984,0,0,1-1.508-1.689,5.28,5.28,0,0,1-.525-2.337,4.928,4.928,0,0,1,.488-2.207,3.358,3.358,0,0,1,1.449-1.511,4.6,4.6,0,0,1,2.211-.518,5.777,5.777,0,0,1,1.1.1,5.066,5.066,0,0,1,1.02.314,3.444,3.444,0,0,1,.631.313,0.48,0.48,0,0,1,.147.161,2.285,2.285,0,0,1,.044.416l0.034,0.723,0.055,0.055h0.314l0.054-.048a16.214,16.214,0,0,1,.287-1.917l-0.048-.075a8.678,8.678,0,0,0-3.432-.648,6.224,6.224,0,0,0-4.212,1.391,4.7,4.7,0,0,0-1.614,3.753,4.873,4.873,0,0,0,.717,2.674,4.529,4.529,0,0,0,1.937,1.7,6.362,6.362,0,0,0,2.736.573,10.641,10.641,0,0,0,3.841-.717l0.041-.068a11.836,11.836,0,0,1-.075-1.289q0-.525.03-0.891a2.464,2.464,0,0,1,.051-0.4,0.43,0.43,0,0,1,.144-0.117l0.334-.2,0.027-.082v-0.2Zm1.7-5.82v0.341l0.055,0.048a5.8,5.8,0,0,1,.907.075,0.494,0.494,0,0,1,.249.123,0.616,0.616,0,0,1,.1.3c0.021,0.15.033,0.485,0.038,1l0.014,1.33v3.159l-0.007,1.439a6.441,6.441,0,0,1-.051.942,0.543,0.543,0,0,1-.116.276,0.617,0.617,0,0,1-.284.106,7.144,7.144,0,0,1-.845.068l-0.055.041v0.341l0.055,0.055q1.738-.056,1.951-0.055c0.181,0,.434,0,0.757.014l1.2,0.041,0.054-.055V427.55l-0.054-.041a5.42,5.42,0,0,1-.908-0.078,0.515,0.515,0,0,1-.249-0.126,0.647,0.647,0,0,1-.1-0.3,9.6,9.6,0,0,1-.041-1l-0.006-1.33v-3.159l0.013-1.569a6.023,6.023,0,0,1,.038-0.767,0.489,0.489,0,0,1,.153-0.352,0.883,0.883,0,0,1,.372-0.1q0.257-.027.727-0.041l0.054-.048V418.3l-0.054-.047q-1.727.054-1.958,0.054-0.26,0-1.1-.027l-0.852-.027Zm7.428,9.592a9.606,9.606,0,0,1,1.147.048l0.054-.055v-0.32L569,427.509a3.34,3.34,0,0,1-.748-0.061,0.51,0.51,0,0,1-.235-0.12,0.553,0.553,0,0,1-.089-0.235,9.185,9.185,0,0,1-.058-0.976c-0.016-.536-0.023-0.909-0.023-1.118v-5.233l4.625,5.778,1.453,1.774,0.484,0.573a10.876,10.876,0,0,1,1.181.287q-0.014-.928-0.028-1.849l-0.006-1.876v-3.241q0-.327.023-1.071t0.048-.941a0.774,0.774,0,0,1,.086-0.3,0.434,0.434,0,0,1,.306-0.147,4.439,4.439,0,0,1,.7-0.051l0.055-.055v-0.314l-0.062-.061q-0.421.035-1.357,0.034-1.023,0-1.576-.034l-0.055.061v0.314l0.055,0.055a4.7,4.7,0,0,1,.638.044,0.658,0.658,0,0,1,.32.113,0.486,0.486,0,0,1,.12.29q0.035,0.214.058,1.016t0.024,1.047v5.281q-0.6-.656-1.18-1.385l-3.2-4.012-2.176-2.824c-0.3.023-.673,0.034-1.133,0.034q-0.293,0-1.235-.034l-0.054.061v0.321l0.054,0.055a4.455,4.455,0,0,1,.744.051,0.555,0.555,0,0,1,.345.211,0.856,0.856,0,0,1,.126.515V425q0,0.319-.024,1.064t-0.048.955a0.653,0.653,0,0,1-.1.307,0.5,0.5,0,0,1-.321.136,4.577,4.577,0,0,1-.665.048l-0.062.055v0.314l0.062,0.061q0.764-.048,1.78-0.048h0Zm12.034,0q0.662,0,1.542.055l0.054-.055v-0.355l-0.061-.054a3.117,3.117,0,0,1-.928-0.089,0.266,0.266,0,0,1-.184-0.252,2.054,2.054,0,0,1,.2-0.689l0.743-1.747h3.95l0.839,2.081a1.16,1.16,0,0,1,.1.4,0.227,0.227,0,0,1-.191.235,5.493,5.493,0,0,1-.955.065l-0.055.054v0.355l0.055,0.055q1.132-.027,2.265-0.062,0.579,0,1.3.062l0.054-.055v-0.355l-0.054-.054a2.328,2.328,0,0,1-.563-0.051,0.6,0.6,0,0,1-.212-0.126,2.675,2.675,0,0,1-.307-0.539q-0.222-.458-0.392-0.846l-0.389-.915-2.913-6.849h-0.443q-0.519,1.234-1.044,2.47l-1.856,4.2-0.716,1.555a5.507,5.507,0,0,1-.454.87,0.549,0.549,0,0,1-.255.178,3.014,3.014,0,0,1-.642.051l-0.061.054v0.355l0.061,0.055c0.51-.037,1.014-0.055,1.515-0.055h0Zm3.336-7.886,1.712,4.114h-3.452Zm6.807-1.365,0.055,0.048a5.79,5.79,0,0,1,.907.075,0.494,0.494,0,0,1,.249.123,0.614,0.614,0,0,1,.1.3c0.02,0.15.033,0.485,0.037,1l0.014,1.33v2.927q0,1.173-.044,2.006a4.305,4.305,0,0,1-.086.88,2.92,2.92,0,0,1-.463.266l-0.055.068v0.225l0.055,0.055q0.71-.056,1.391-0.055l1.992,0.014q2.109,0,3.4.041l0.054-.055q0-.485.058-1.269a10.372,10.372,0,0,1,.113-1.057l-0.048-.055h-0.334l-0.062.055q-0.006.1-.146,0.709a5.721,5.721,0,0,1-.215.785,2.827,2.827,0,0,1-.795.2q-0.413.041-2.077,0.041h-1.392l-0.034-1.181q-0.013-.45-0.014-1.582v-3.016l0.014-1.569a6.057,6.057,0,0,1,.037-0.767,0.485,0.485,0,0,1,.154-0.352,0.878,0.878,0,0,1,.372-0.1q0.255-.027.726-0.041l0.055-.048V418.3l-0.055-.047q-1.727.054-1.958,0.054-0.26,0-1.951-.054l-0.055.047v0.341Z" transform="translate(-387.219 -364.5)"/>
</svg>
