<?xml version="1.0" encoding="utf-8"?><svg width="345" height="64" viewBox="0 0 345 64" xmlns="http://www.w3.org/2000/svg" xmlns:xlink="http://www.w3.org/1999/xlink"><svg width="344.781" height="63.688" viewBox="0 0 344.781 63.688" id="L1VzZXJzL2t1a2tvbWFoL3Byb2plY3RzL2JyYW5kLWJvdXRpcXVlL3NyYy9tb2R1bGVzL2hlYWRlci9zcHJpdGUtbG9nby5zdmc="><defs><style>.acls-1{fill:#262623;fill-rule:evenodd}</style></defs><path id="aOriginal" class="acls-1" d="M389.194 367.717a5.344 5.344 0 0 1 1.158.222 1.5 1.5 0 0 1 .526.315 1.228 1.228 0 0 1 .268.655 13.447 13.447 0 0 1 .129 1.555q.047 1.086.047 2.817l.023 5.307v8.58q0 2.058-.128 5.961a18.35 18.35 0 0 1-.339 4.139 6.7 6.7 0 0 1-1.567.841l-.187.234v.771l.187.187q2.315-.186 3.9-.187.258 0 3.367.071 2.805.115 3.367.116a18.423 18.423 0 0 0 4.617-.49 13.416 13.416 0 0 0 3.635-1.59 11.945 11.945 0 0 0 3.028-2.642 9.143 9.143 0 0 0 1.718-3.109 10.742 10.742 0 0 0 .468-3.086 7.967 7.967 0 0 0-.69-3.414 6.41 6.41 0 0 0-1.882-2.4 7.966 7.966 0 0 0-2.829-1.368 25.176 25.176 0 0 0-4.161-.678q4.208-.959 6.078-3.179a7.332 7.332 0 0 0 1.871-4.816 6.179 6.179 0 0 0-1.123-3.636 5.847 5.847 0 0 0-2.969-2.232 15.948 15.948 0 0 0-5-.632q-.817 0-2.642.047-5.658.188-6.475.187-2.175 0-6.172-.187l-.188.164v1.169l.188.163zm6.617 7.925q0-5.236.21-7.341a18.672 18.672 0 0 1 3.834-.351 11.121 11.121 0 0 1 4.22.655 4.615 4.615 0 0 1 2.279 1.882 5.768 5.768 0 0 1 .725 2.981 6.108 6.108 0 0 1-1.894 4.746q-1.893 1.73-6.733 1.73-1.473 0-2.641-.094v-4.208zm0 14.121v-7.972q1.471-.093 2.524-.094 6.336 0 8.242 2.023a7.537 7.537 0 0 1 1.905 5.388 9.59 9.59 0 0 1-.9 4.15 6.617 6.617 0 0 1-2.794 2.981 10.661 10.661 0 0 1-5.237 1.075 16.207 16.207 0 0 1-3.694-.42zm22.419-11.175l-.187.187v1l.21.187 1.964.023a2.772 2.772 0 0 1 1.216.176.729.729 0 0 1 .362.549q.058.375.152 1.987t.094 2.549v4.605q0 1.311-.106 3.87t-.187 3.016a1.249 1.249 0 0 1-.3.678 1.07 1.07 0 0 1-.514.292q-.292.069-2.56.21l-.21.187v.982l.21.21q2.922-.186 5.611-.187 3.39 0 6.5.187l.211-.21v-.982l-.211-.187q-2.969-.164-3.331-.234a1.044 1.044 0 0 1-.912-.888 27.8 27.8 0 0 1-.2-3.156q-.093-2.736-.093-3.437v-2.595a14.245 14.245 0 0 1 .362-3.518 4.464 4.464 0 0 1 1.438-2.315 3.756 3.756 0 0 1 2.525-.923 3.138 3.138 0 0 1 3.016 2.15h1.052q.046-2.361.421-5.47l-.164-.328a4.584 4.584 0 0 0-1.94-.42 5.239 5.239 0 0 0-1.824.327 4.8 4.8 0 0 0-1.555.923 13.746 13.746 0 0 0-1.531 1.695l-1.753 2.221q.069-3.459.21-4.816l-.444-.3a30.464 30.464 0 0 1-7.528 1.754zm23.541 4.559q1.1-2.619 1.263-2.864a3.183 3.183 0 0 1 1.274-.643 7.279 7.279 0 0 1 2.467-.4 5.887 5.887 0 0 1 4.138 1.415q1.542 1.415 1.543 4.874-9.586 1.356-11.737 3.285a6.836 6.836 0 0 0-2.15 5.366 5.718 5.718 0 0 0 .713 2.945 4.846 4.846 0 0 0 2.057 1.894 7.063 7.063 0 0 0 3.215.678 7.187 7.187 0 0 0 2.805-.538l5.1-3.974-.094 3.764.351.327q1.963-.139 3.366-.14 1.473 0 3.18.14l.187-.187v-.935l-.187-.211-1.333-.116a3.968 3.968 0 0 1-.958-.176 1.013 1.013 0 0 1-.456-.409 4.235 4.235 0 0 1-.2-1.73v-6.967l.117-4.7a7.437 7.437 0 0 0-.8-3.518 6.3 6.3 0 0 0-2.571-2.514 8.978 8.978 0 0 0-4.466-1 13.664 13.664 0 0 0-8.089 3.086v2.9l.187.234.912.234zm10.685 10.123q-3.041 3.6-6.149 3.6-3.624 0-3.624-3.647a4.651 4.651 0 0 1 1.613-3.9q1.614-1.263 8.16-2.361v6.312zm9.561-14.682l-.187.187v1l.21.187 1.96.028a2.772 2.772 0 0 1 1.216.176.729.729 0 0 1 .362.549q.058.375.152 1.987t.094 2.549v4.605q0 1.311-.106 3.87t-.187 3.016a1.256 1.256 0 0 1-.3.678 1.07 1.07 0 0 1-.514.292q-.293.069-2.56.21l-.21.187v.982l.21.21q2.922-.186 5.611-.187 2.712 0 5.634.187l.187-.21v-.982l-.21-.187q-2.221-.139-2.525-.2a.959.959 0 0 1-.514-.268 1.37 1.37 0 0 1-.316-.678 30.4 30.4 0 0 1-.2-3.262q-.093-2.793-.093-3.308v-4.068a17.338 17.338 0 0 1 .1-2.443 2.959 2.959 0 0 1 .62-1.239 7.408 7.408 0 0 1 1.589-1.426 6.613 6.613 0 0 1 1.941-1 7.674 7.674 0 0 1 2.08-.246 5.8 5.8 0 0 1 2.619.55 4.422 4.422 0 0 1 1.753 1.543 4.886 4.886 0 0 1 .783 2.209q.129 1.215.129 3.974v3.063q0 4.887-.3 7.925l.281.257q2.805-.186 3.413-.187 1.052 0 4.021.187l.187-.187v-1l-.187-.187q-2.454 0-2.9-.421t-.491-2.641q-.117-5.424-.117-5.822v-4.114a14.523 14.523 0 0 0-.327-3.344 5.54 5.54 0 0 0-1.181-2.349 6.868 6.868 0 0 0-2.525-1.719 8.586 8.586 0 0 0-3.448-.724 9.1 9.1 0 0 0-2.057.233 7.4 7.4 0 0 0-1.438.445 4.069 4.069 0 0 0-.924.654q-1.683 1.59-3.553 3.133.047-2.549.187-4.115l-.444-.3a30.475 30.475 0 0 1-7.528 1.754zm44.3-10.965a21.04 21.04 0 0 1 2.84.094.835.835 0 0 1 .48.292 3.653 3.653 0 0 1 .233 1.262q.094 1.065.141 3.776l.093 5.214a11.607 11.607 0 0 0-5.658-1.473 8.762 8.762 0 0 0-4.29 1.2q-2.162 1.2-4 2.326a7.158 7.158 0 0 0-2.829 3.565 13.364 13.364 0 0 0-.994 5.085 13.867 13.867 0 0 0 .959 5.062 8.772 8.772 0 0 0 3.214 4.056 9.275 9.275 0 0 0 5.483 1.59 7.011 7.011 0 0 0 3.062-.538q.585-.421 2.478-2.1 1.287-1.146 2.572-2.081c-.015.514-.023.811-.023.888q0 .912-.07 3.2l.257.257q2.337-.163 3.6-.163 1.4 0 3.928.163l.21-.21v-.888l-.21-.187a12.328 12.328 0 0 1-2.724-.4 1.506 1.506 0 0 1-.689-.537 6.126 6.126 0 0 1-.293-2.093q-.082-1.764-.082-4.126v-15.308q0-8.089.258-10.778l-.445-.281a29.783 29.783 0 0 1-7.528 1.73l-.187.211v.982zm3.787 18.633q0 3.554-.14 4.886a6.127 6.127 0 0 1-.994 2.665 6.482 6.482 0 0 1-2.174 2.116 5.815 5.815 0 0 1-3.027.783 6.493 6.493 0 0 1-5.2-2.478 9.911 9.911 0 0 1-2.069-6.569 13.4 13.4 0 0 1 .748-4.547 5.947 5.947 0 0 1 2.443-3.157 6.757 6.757 0 0 1 3.659-1.063 7.982 7.982 0 0 1 3.542.865 10.433 10.433 0 0 1 3.214 2.5v4zm26.019-18.539a5.332 5.332 0 0 1 1.157.222 1.489 1.489 0 0 1 .526.315 1.228 1.228 0 0 1 .269.655 13.682 13.682 0 0 1 .129 1.555q.046 1.086.046 2.817l.024 5.307v8.58q0 2.058-.129 5.961a18.279 18.279 0 0 1-.339 4.139 6.66 6.66 0 0 1-1.566.841l-.187.234v.771l.187.187q2.314-.186 3.9-.187.257 0 3.367.071 2.8.115 3.366.116a18.426 18.426 0 0 0 4.618-.49 13.429 13.429 0 0 0 3.635-1.59 11.962 11.962 0 0 0 3.028-2.642 9.143 9.143 0 0 0 1.718-3.109 10.742 10.742 0 0 0 .468-3.086 7.982 7.982 0 0 0-.69-3.414 6.41 6.41 0 0 0-1.882-2.4 7.966 7.966 0 0 0-2.829-1.368 25.176 25.176 0 0 0-4.161-.678q4.208-.959 6.078-3.179a7.331 7.331 0 0 0 1.87-4.816 6.185 6.185 0 0 0-1.122-3.636 5.847 5.847 0 0 0-2.969-2.232 15.948 15.948 0 0 0-5-.632q-.819 0-2.642.047-5.658.188-6.476.187-2.173 0-6.172-.187l-.187.164v1.169l.187.163zm6.616 7.925q0-5.236.211-7.341a18.665 18.665 0 0 1 3.834-.351 11.121 11.121 0 0 1 4.22.655 4.615 4.615 0 0 1 2.279 1.882 5.768 5.768 0 0 1 .725 2.981 6.108 6.108 0 0 1-1.894 4.746q-1.893 1.73-6.733 1.73-1.473 0-2.642-.094v-4.208zm0 14.121v-7.972q1.473-.093 2.525-.094 6.336 0 8.241 2.023a7.537 7.537 0 0 1 1.906 5.388 9.591 9.591 0 0 1-.9 4.15 6.615 6.615 0 0 1-2.793 2.981 10.664 10.664 0 0 1-5.237 1.075 16.2 16.2 0 0 1-3.694-.42zm23.787 4.185a11.008 11.008 0 0 0 3.8 4.313 10.084 10.084 0 0 0 5.845 1.765 11.961 11.961 0 0 0 12.087-12.274 10.595 10.595 0 0 0-11.082-11.058 11.93 11.93 0 0 0-6.744 1.882 10.544 10.544 0 0 0-3.987 4.466 13.106 13.106 0 0 0-1.145 5.365 12.6 12.6 0 0 0 1.228 5.541zm4.9-13.49a5.671 5.671 0 0 1 4.746-2.2 6.227 6.227 0 0 1 5.623 3.179 15.394 15.394 0 0 1 1.952 8.159q0 4.4-1.8 6.581a5.655 5.655 0 0 1-4.559 2.186 6.209 6.209 0 0 1-4.162-1.566 9 9 0 0 1-2.665-4.15 18.87 18.87 0 0 1-.841-5.856 10.156 10.156 0 0 1 1.706-6.333zm19.941-1.87l-.187.187v1l.211.187 1.964.023a2.764 2.764 0 0 1 1.215.176.728.728 0 0 1 .363.549q.057.375.152 1.987t.093 2.549v4.559l-.023 1.847a14.524 14.524 0 0 0 .608 5.038 4.635 4.635 0 0 0 2.069 2.291 8.325 8.325 0 0 0 4.079.83 9.034 9.034 0 0 0 3.086-.491 5.6 5.6 0 0 0 2.081-1.216 35.705 35.705 0 0 1 3.367-3.062q-.071 1.659-.211 4.044l.211.187q1.869-.164 3.3-.164 1.122 0 4.419.187l.187-.21v-.935l-.211-.187h-.654a6.789 6.789 0 0 1-2.081-.175 1.208 1.208 0 0 1-.549-.608 8.663 8.663 0 0 1-.246-2.42q-.117-5.378-.117-5.728v-4.114q0-4.724.257-7.786l-.444-.3a30.464 30.464 0 0 1-7.528 1.754l-.187.187v1l.211.187 1.963.023a2.772 2.772 0 0 1 1.216.176.729.729 0 0 1 .362.549q.058.375.152 1.987t.094 2.549v2.525l-.07 2.618a11.958 11.958 0 0 1-.187 2.361 7.693 7.693 0 0 1-1.087 1.637 6.439 6.439 0 0 1-2.35 1.882 7.158 7.158 0 0 1-3.109.666 5.437 5.437 0 0 1-2.666-.619 3.4 3.4 0 0 1-1.578-1.789 12.937 12.937 0 0 1-.455-4.161v-5.447q0-4.724.257-7.786l-.445-.3a30.464 30.464 0 0 1-7.528 1.754zm30.556 2.361q1.355-.093 2.408-.093h.958v9.7q0 .42-.023.818-.095 1.31-.094 3.18 0 5.1 5.261 5.1a5.862 5.862 0 0 0 2.478-.561q2.127-1.94 2.688-2.338l-.561-.841a5.442 5.442 0 0 1-2.9.818 3.135 3.135 0 0 1-2.045-.573 2.449 2.449 0 0 1-.842-1.59 37.448 37.448 0 0 1-.152-4.313l.14-9.515q2.058-.024 3.367-.024 1.449 0 2.642.024l.187-.211.444-1.964-.164-.163a38.569 38.569 0 0 1-3.951.14q-1.356 0-2.525-.023.327-7.084.561-8.557l-.561-.468a20.166 20.166 0 0 1-3.951 1.8q.141 1 .141 7.107a33.214 33.214 0 0 1-3.554 1.519l-.164.234v.608zm20.163-13.793a2.526 2.526 0 0 0-.783 1.87 2.487 2.487 0 0 0 .783 1.858 2.577 2.577 0 0 0 1.859.76 2.547 2.547 0 0 0 1.87-.771 2.631 2.631 0 0 0-1.87-4.489 2.557 2.557 0 0 0-1.859.772zm-3.686 11.432l-.187.187v1l.21.187 1.964.023a2.772 2.772 0 0 1 1.216.176.729.729 0 0 1 .362.549q.058.375.152 1.987t.094 2.549v4.605q0 1.311-.106 3.87t-.187 3.016a1.249 1.249 0 0 1-.3.678 1.07 1.07 0 0 1-.514.292q-.293.069-2.56.21l-.21.187v.982l.21.21q2.922-.186 5.611-.187 2.712 0 5.634.187l.187-.21v-.982l-.21-.187q-2.221-.139-2.525-.2a.959.959 0 0 1-.514-.268 1.37 1.37 0 0 1-.316-.678 30.7 30.7 0 0 1-.2-3.262q-.093-2.793-.093-3.308v-5.283q0-4.724.257-7.786l-.444-.3a30.464 30.464 0 0 1-7.528 1.754zm34.483-.164a13.416 13.416 0 0 0-6.149-1.636A10.005 10.005 0 0 0 661.9 378q-3.577 1.988-4.138 2.385a7.992 7.992 0 0 0-2.712 3.273 13.657 13.657 0 0 0-1.1 5.424 11.6 11.6 0 0 0 2.49 7.423 8.173 8.173 0 0 0 6.768 3.144 12.964 12.964 0 0 0 1.426-.07 4.138 4.138 0 0 0 .736-.117c.071-.031.293-.164.667-.4l5-3.133v6.944q0 1.332-.105 3.974t-.187 3.133a1.3 1.3 0 0 1-.3.713 1.077 1.077 0 0 1-.515.292q-.292.071-2.56.21l-.187.187v.982l.187.211q3.109-.187 5.611-.187 2.712 0 5.635.187l.187-.211v-.982l-.211-.187q-2.221-.139-2.513-.2a1.029 1.029 0 0 1-.514-.269 1.316 1.316 0 0 1-.328-.678 30.53 30.53 0 0 1-.2-3.261q-.094-2.795-.094-3.309v-14.767q0-2.922.094-5.155a28.578 28.578 0 0 1 .269-3.261 17.549 17.549 0 0 1 .853-2.876l-.865-.514zm-1.777 8.744q0 .841-.07 6.686a7.2 7.2 0 0 1-5.634 3.086 6.689 6.689 0 0 1-3.636-1.052 7.007 7.007 0 0 1-2.642-3.425 13 13 0 0 1-.97-4.968 9.887 9.887 0 0 1 1.941-6.359 6.156 6.156 0 0 1 5.049-2.431 7.641 7.641 0 0 1 3.46.818 9.48 9.48 0 0 1 2.432 1.613q.071 2.151.07 6.032zm9.327-8.58l-.187.187v1l.211.187 1.963.023a2.769 2.769 0 0 1 1.216.176.73.73 0 0 1 .363.549q.057.375.152 1.987t.093 2.549v4.559l-.023 1.847a14.524 14.524 0 0 0 .608 5.038 4.635 4.635 0 0 0 2.069 2.291 8.319 8.319 0 0 0 4.079.83 9.038 9.038 0 0 0 3.086-.491 5.6 5.6 0 0 0 2.081-1.216 35.581 35.581 0 0 1 3.367-3.062q-.071 1.659-.211 4.044l.211.187q1.869-.164 3.3-.164 1.122 0 4.419.187l.187-.21v-.935l-.211-.187h-.654a6.789 6.789 0 0 1-2.081-.175 1.214 1.214 0 0 1-.55-.608 8.721 8.721 0 0 1-.245-2.42q-.117-5.378-.117-5.728v-4.114q0-4.724.257-7.786l-.444-.3a30.464 30.464 0 0 1-7.528 1.754l-.187.187v1l.21.187 1.964.023a2.772 2.772 0 0 1 1.216.176.729.729 0 0 1 .362.549q.058.375.152 1.987t.094 2.549v2.525l-.07 2.618a11.958 11.958 0 0 1-.187 2.361 7.671 7.671 0 0 1-1.088 1.637 6.427 6.427 0 0 1-2.349 1.882 7.158 7.158 0 0 1-3.109.666 5.435 5.435 0 0 1-2.666-.619 3.4 3.4 0 0 1-1.578-1.789 12.93 12.93 0 0 1-.456-4.161v-5.447q0-4.724.258-7.786l-.445-.3a30.464 30.464 0 0 1-7.528 1.754zM730 395.28a19.591 19.591 0 0 1-3.192 1.567 8.942 8.942 0 0 1-3.144.561 8.119 8.119 0 0 1-5.845-2.291q-2.383-2.292-2.431-7.131h7.5q.865 0 3.554-.117a26.074 26.074 0 0 0 4.278-.467l.258-.258a13.822 13.822 0 0 0 .07-1.4 11.179 11.179 0 0 0-.865-4.372 7.26 7.26 0 0 0-3-3.378 9.212 9.212 0 0 0-4.944-1.321 10.356 10.356 0 0 0-3.834.7 14.929 14.929 0 0 0-3.367 1.87 9.9 9.9 0 0 0-2.256 2.128 10.986 10.986 0 0 0-1.274 2.934 15.012 15.012 0 0 0-.608 4.43 12.011 12.011 0 0 0 1.578 6.313 8.931 8.931 0 0 0 4.091 3.717 13.146 13.146 0 0 0 5.319 1.1 14.449 14.449 0 0 0 3.4-.468 14.83 14.83 0 0 0 4.337-2.034l.748-1.683zm-13.058-15.056a5.2 5.2 0 0 1 4.337-1.987A4.959 4.959 0 0 1 725.3 380q1.473 1.765 1.473 5.389 0 .3-.023.865a36.445 36.445 0 0 1-3.951.117q-1.356 0-4.173-.093t-3.238-.164a9.445 9.445 0 0 1 1.554-5.89zM389 424v-1h122v1H389zm221 0v-1h122v1H610zm-88.339.958a4.491 4.491 0 0 0 .955 1.7 4.18 4.18 0 0 0 1.593 1.109 5.484 5.484 0 0 0 2.046.372 5.836 5.836 0 0 0 2.828-.683 4.72 4.72 0 0 0 1.934-1.91 5.652 5.652 0 0 0 .676-2.769 4.46 4.46 0 0 0-1.379-3.456 5.26 5.26 0 0 0-3.7-1.265 5.834 5.834 0 0 0-2.251.412 4.836 4.836 0 0 0-1.7 1.167 4.428 4.428 0 0 0-1 1.641 5.867 5.867 0 0 0-.002 3.682zm2.077-5.281a3.379 3.379 0 0 1 2.613-1.037 4.072 4.072 0 0 1 2.012.5 3.3 3.3 0 0 1 1.4 1.617 6.111 6.111 0 0 1 .491 2.49 5.834 5.834 0 0 1-.43 2.289 3.041 3.041 0 0 1-1.255 1.5 3.924 3.924 0 0 1-3.476.15 3.446 3.446 0 0 1-1.235-1.02 4.712 4.712 0 0 1-.8-1.644 6.662 6.662 0 0 1-.269-1.791 4.377 4.377 0 0 1 .949-3.054zm9.407-1.037l.054.048a5.822 5.822 0 0 1 .908.075.5.5 0 0 1 .249.123.616.616 0 0 1 .1.3c.021.15.033.485.038 1l.013 1.33v3.159l-.006 1.439a6.243 6.243 0 0 1-.052.942.527.527 0 0 1-.116.276.607.607 0 0 1-.283.106 7.147 7.147 0 0 1-.846.068l-.054.041v.341l.054.055q1.74-.056 1.951-.055.273 0 .758.014l1.2.041.055-.055v-.338l-.055-.041a5.416 5.416 0 0 1-.907-.078.51.51 0 0 1-.249-.126.647.647 0 0 1-.1-.3 9.308 9.308 0 0 1-.041-1l-.007-1.33v-3.159a13.75 13.75 0 0 1 .1-2.558 4.507 4.507 0 0 1 1.35-.2 2.6 2.6 0 0 1 1.624.461 1.609 1.609 0 0 1 .6 1.361 1.946 1.946 0 0 1-.668 1.569 2.776 2.776 0 0 1-1.849.566c-.132 0-.316-.007-.552-.02l-.069.211q1.228 1.4 2.4 3.036 1.01 1.411 1.48 1.985.573-.041 1.058-.041a6.418 6.418 0 0 1 .777.041l.062-.061v-.316l-.055-.054a2.162 2.162 0 0 1-.358-.021.867.867 0 0 1-.27-.113 4.314 4.314 0 0 1-.7-.8q-.54-.705-1.01-1.34l-.969-1.283q-.5-.654-.689-.921a4.414 4.414 0 0 0 1.617-.59 2.664 2.664 0 0 0 .887-.945 2.331 2.331 0 0 0 .3-1.125 2.059 2.059 0 0 0-.614-1.488 3.286 3.286 0 0 0-2.34-.627q-.219 0-.7.013-1.31.048-2.08.048-.7 0-1.945-.054l-.054.047v.341zm10.232-.341v.341l.055.048a5.8 5.8 0 0 1 .907.075.494.494 0 0 1 .249.123.616.616 0 0 1 .1.3c.021.15.033.485.038 1l.014 1.33v3.159l-.007 1.439a6.441 6.441 0 0 1-.051.942.535.535 0 0 1-.116.276.612.612 0 0 1-.283.106 7.147 7.147 0 0 1-.846.068l-.055.041v.341l.055.055q1.738-.056 1.951-.055.273 0 .757.014l1.2.041.054-.055v-.338l-.054-.041a5.433 5.433 0 0 1-.908-.078.52.52 0 0 1-.249-.126.637.637 0 0 1-.1-.3 9.035 9.035 0 0 1-.041-1l-.007-1.33v-3.159l.013-1.569a6.023 6.023 0 0 1 .038-.767.489.489 0 0 1 .153-.352.888.888 0 0 1 .372-.1q.256-.027.727-.041l.054-.048v-.339l-.054-.047q-1.726.054-1.958.054-.26 0-1.1-.027l-.852-.027zm15.349 5.82q-.75.04-1.139.04-.677 0-1.747-.034l-.416-.013-.061.061v.3l.061.062a8.2 8.2 0 0 1 1.163.068.456.456 0 0 1 .338.188 1.94 1.94 0 0 1 .068.672v.757a3.984 3.984 0 0 1-.061.88 3.453 3.453 0 0 1-.972.317 6.176 6.176 0 0 1-1.157.113 4.265 4.265 0 0 1-2.285-.607 3.984 3.984 0 0 1-1.508-1.689 5.28 5.28 0 0 1-.525-2.337 4.928 4.928 0 0 1 .488-2.207 3.358 3.358 0 0 1 1.449-1.511 4.6 4.6 0 0 1 2.211-.518 5.777 5.777 0 0 1 1.1.1 5.066 5.066 0 0 1 1.02.314 3.444 3.444 0 0 1 .631.313.48.48 0 0 1 .147.161 2.285 2.285 0 0 1 .044.416l.034.723.055.055h.314l.054-.048a16.214 16.214 0 0 1 .287-1.917l-.048-.075a8.678 8.678 0 0 0-3.432-.648 6.224 6.224 0 0 0-4.212 1.391 4.7 4.7 0 0 0-1.614 3.753 4.873 4.873 0 0 0 .717 2.674 4.529 4.529 0 0 0 1.937 1.7 6.362 6.362 0 0 0 2.736.573 10.641 10.641 0 0 0 3.841-.717l.041-.068a11.836 11.836 0 0 1-.075-1.289q0-.525.03-.891a2.464 2.464 0 0 1 .051-.4.43.43 0 0 1 .144-.117l.334-.2.027-.082v-.2zm1.7-5.82v.341l.055.048a5.8 5.8 0 0 1 .907.075.494.494 0 0 1 .249.123.616.616 0 0 1 .1.3c.021.15.033.485.038 1l.014 1.33v3.159l-.007 1.439a6.441 6.441 0 0 1-.051.942.543.543 0 0 1-.116.276.617.617 0 0 1-.284.106 7.144 7.144 0 0 1-.845.068l-.055.041v.341l.055.055q1.738-.056 1.951-.055c.181 0 .434 0 .757.014l1.2.041.054-.055v-.338l-.054-.041a5.42 5.42 0 0 1-.908-.078.515.515 0 0 1-.249-.126.647.647 0 0 1-.1-.3 9.6 9.6 0 0 1-.041-1l-.006-1.33v-3.159l.013-1.569a6.023 6.023 0 0 1 .038-.767.489.489 0 0 1 .153-.352.883.883 0 0 1 .372-.1q.257-.027.727-.041l.054-.048v-.339l-.054-.047q-1.727.054-1.958.054-.26 0-1.1-.027l-.852-.027zm7.428 9.592a9.606 9.606 0 0 1 1.147.048l.054-.055v-.32l-.055-.055a3.34 3.34 0 0 1-.748-.061.51.51 0 0 1-.235-.12.553.553 0 0 1-.089-.235 9.185 9.185 0 0 1-.058-.976 42.796 42.796 0 0 1-.023-1.118v-5.233l4.625 5.778 1.453 1.774.484.573a10.876 10.876 0 0 1 1.181.287l-.028-1.849-.006-1.876v-3.241q0-.327.023-1.071t.048-.941a.774.774 0 0 1 .086-.3.434.434 0 0 1 .306-.147 4.439 4.439 0 0 1 .7-.051l.055-.055v-.314l-.062-.061q-.421.035-1.357.034-1.023 0-1.576-.034l-.055.061v.314l.055.055a4.7 4.7 0 0 1 .638.044.658.658 0 0 1 .32.113.486.486 0 0 1 .12.29q.035.214.058 1.016t.024 1.047v5.281q-.6-.656-1.18-1.385l-3.2-4.012-2.176-2.824c-.3.023-.673.034-1.133.034q-.293 0-1.235-.034l-.054.061v.321l.054.055a4.455 4.455 0 0 1 .744.051.555.555 0 0 1 .345.211.856.856 0 0 1 .126.515V425q0 .319-.024 1.064t-.048.955a.653.653 0 0 1-.1.307.5.5 0 0 1-.321.136 4.577 4.577 0 0 1-.665.048l-.062.055v.314l.062.061q.764-.048 1.78-.048zm12.034 0q.662 0 1.542.055l.054-.055v-.355l-.061-.054a3.117 3.117 0 0 1-.928-.089.266.266 0 0 1-.184-.252 2.054 2.054 0 0 1 .2-.689l.743-1.747h3.95l.839 2.081a1.16 1.16 0 0 1 .1.4.227.227 0 0 1-.191.235 5.493 5.493 0 0 1-.955.065l-.055.054v.355l.055.055q1.132-.027 2.265-.062.579 0 1.3.062l.054-.055v-.355l-.054-.054a2.328 2.328 0 0 1-.563-.051.6.6 0 0 1-.212-.126 2.675 2.675 0 0 1-.307-.539q-.222-.458-.392-.846l-.389-.915-2.913-6.849h-.443q-.519 1.234-1.044 2.47l-1.856 4.2-.716 1.555a5.507 5.507 0 0 1-.454.87.549.549 0 0 1-.255.178 3.014 3.014 0 0 1-.642.051l-.061.054v.355l.061.055a20.91 20.91 0 0 1 1.515-.055zm3.336-7.886l1.712 4.114h-3.452zm6.807-1.365l.055.048a5.79 5.79 0 0 1 .907.075.494.494 0 0 1 .249.123.614.614 0 0 1 .1.3c.02.15.033.485.037 1l.014 1.33v2.927q0 1.173-.044 2.006a4.305 4.305 0 0 1-.086.88 2.92 2.92 0 0 1-.463.266l-.055.068v.225l.055.055q.71-.056 1.391-.055l1.992.014q2.109 0 3.4.041l.054-.055q0-.485.058-1.269a10.372 10.372 0 0 1 .113-1.057l-.048-.055h-.334l-.062.055q-.006.1-.146.709a5.721 5.721 0 0 1-.215.785 2.827 2.827 0 0 1-.795.2q-.413.041-2.077.041h-1.392l-.034-1.181q-.013-.45-.014-1.582v-3.016l.014-1.569a6.057 6.057 0 0 1 .037-.767.485.485 0 0 1 .154-.352.878.878 0 0 1 .372-.1q.255-.027.726-.041l.055-.048v-.341l-.055-.047q-1.727.054-1.958.054-.26 0-1.951-.054l-.055.047v.341z" transform="translate(-387.219 -364.5)"/></svg></svg>